<mxfile host="app.diagrams.net" agent="Mozilla/5.0 (Windows NT 10.0; Win64; x64) AppleWebKit/537.36 (KHTML, like Gecko) Chrome/136.0.0.0 Safari/537.36" version="27.0.3">
  <diagram name="Page-1" id="PouKYKWnLVrp_ffEKDGM">
    <mxGraphModel dx="2076" dy="620" grid="0" gridSize="10" guides="1" tooltips="1" connect="1" arrows="1" fold="1" page="1" pageScale="1" pageWidth="850" pageHeight="1100" math="0" shadow="0">
      <root>
        <mxCell id="0" />
        <mxCell id="1" parent="0" />
        <mxCell id="GSB6CKghgu1PnchC7ddf-22" value="" style="rounded=0;whiteSpace=wrap;html=1;" vertex="1" parent="1">
          <mxGeometry x="-200" y="96" width="923" height="381" as="geometry" />
        </mxCell>
        <mxCell id="GSB6CKghgu1PnchC7ddf-9" value="" style="whiteSpace=wrap;html=1;aspect=fixed;" vertex="1" parent="1">
          <mxGeometry x="-19" y="186" width="168" height="168" as="geometry" />
        </mxCell>
        <mxCell id="8du3H3_jCVZy6vlck9dF-10" style="edgeStyle=orthogonalEdgeStyle;rounded=0;orthogonalLoop=1;jettySize=auto;html=1;" parent="1" edge="1" target="8du3H3_jCVZy6vlck9dF-6">
          <mxGeometry relative="1" as="geometry">
            <mxPoint x="-18.4000244140625" y="284.69" as="targetPoint" />
            <mxPoint x="-83.08999999999992" y="284.69" as="sourcePoint" />
          </mxGeometry>
        </mxCell>
        <mxCell id="8du3H3_jCVZy6vlck9dF-6" value="" style="shape=image;verticalLabelPosition=bottom;labelBackgroundColor=default;verticalAlign=top;aspect=fixed;imageAspect=0;image=data:image/jpeg,/9j/4AAQSkZJRgABAQAAAQABAAD/2wCEAAkGBxMSEBUREBASDxEQEBYWEBIQFRcWEBgWGBIWFhUSFRcYHSggGBslHRUVLTEjJSk3Li4uFx8zODMsNygwLysBCgoKDg0OGhAQGy0lICUvLS83LTUvLS0rLi0tLS0vLzIyLS8tLS0vNy0tLS0vMC0rLS0tLy0tLS0tLS0tLS8tLf/AABEIAMUBAAMBEQACEQEDEQH/xAAbAAEAAQUBAAAAAAAAAAAAAAAABgIDBAUHAf/EAEcQAAIBAgEHBgkICQQDAAAAAAABAgMRBAUGEiExQVETIjJhcZEHI0JSgaGxstEzVGKCkpPB4hQWFzRyc6LC8CRDg+EVU2P/xAAcAQEAAgMBAQEAAAAAAAAAAAAABAUBAgYDBwj/xAA5EQACAQMABgULBAIDAQAAAAAAAQIDBBEFEiExQVETYXGx0QYiIzIzUoGRocHwFBVC4TRyYqLxFv/aAAwDAQACEQMRAD8A7UAAAAAAAAAAAAAAAAAAAAAAAAAAAAAAAAAAAAAAAAAAAAAAAAAAAAAAAAAAAAAAAAAAAAAAAAAAAAAAAAAAayeVl+kRoQtK9+UluVot6K69R79BLonUe4gO/g7pW0dr2t9Wzd29xszwJ4AAAAAAAAAAAAAAAANdljLuGwii8VXjQU21BzvotrW1e1r9RhvBmMXLYjWrPzJvz+h3v4GNePM9Vb1X/Fnv69ZO+fUe9/Ax0keZt+lre4/kP15yd8+o97+A6SPMfpK/uP5D9ecnfPqPe/gOkjzH6Sv7j+Q/XnJ3z6j3v4DpI8x+jr+4/kHn1k3fjqC7ZNLvaMqcXuZrK2rRWZRa+BlYXOvA1Hanj8LN8FWhfubM5R5uMlvRtaVSMleMlJcYtNeoyalYAAAAAAAAAAAABoM4stcmnSpPxj6Ul5K4Lr9hOs7TpXrS9XvKDTOl1aroqXrv/qvHl8316PNr96h9b3GT7/CoYXUUHk/Ju+TfJk7KI74AAAAAAAAAAAAAAAAGHlfJdLFUZUMRTVSlUVpRfqknuktzWww1kzGTi8o4DnpmTVydVvrq4Wb8VWts/wDnU4S69j3b0oVak47VuL2yuY1dj3mjpxITZcwii/Gkebke6plSomNY36I95Ea46I8lh01Zq6e0KeDDoprDNTi8BovZdPY/wJdOtrIqa9o6b6ijDudKWlSnOlLzqcnCXfFpnsqrIsreL3oleQfCZlHCtKdX9MpLbTxGuVuqoucn237D1jWfEh1LKPDYdvzTzpoZQoqrQlaSXjaUvlIPg1vXWtTJEZqW4r6lKVPebw2PMAAAAAAAGly/ljkloQd6rX2Vx7SZa2rqvL9UpdL6VjZw1IbZvd1db+yIa9bu9be1vaXqSSwj5/KbnJyk8tmyzaX+qh9b3GQ7/wBi/gXfk9/mrsfcToojvwAAAAAAAAAAAAAAAAACxjcJCtTlSqwjUpzVpwkrpoNZMptPKOHZ85kzwE+UpaVXCSfNm9cqbeyFTq4S379e2uuLfV2x3HSWF+qnmT9bvI3TkQGi8hIvxPNkhFaia5N8HuiMmcFFWipKz3/5czGTTyjSdJTjqs1NSjZtPaiYpZWUVE6Ti9VlmdI3UjxlTMrN/KVTC4iNSjN05Xtdcd11vW5p8eo2lJpa0d6I/RRk9Sa2Pv5neszs9KeMSpVbUcSlrj5E/pU7+7tXWS7e5jVXWVF5Yzt3nfHn4ksJJBAAAABqcu5XVCOjGzqyWpbkvOZKtrZ1pdRVaV0pCyp7Ns3uX3fV390LnJyblJttu7b2tl9GKitWO4+d1as6s3Oby3xPDJ5myza/eofW9xkO/wDYvtRe+Tv+aux9xOSiPoAAAAAAAAAAAAAAAAAAAALdejGcXCcVOE01KMleLT2pp7UDKbW1HF8/cxZYNvEYZSnhG7yjtnR7d7h17t/Er7i2/lE6HR+ktbEKm/nz/siFKoV0onQwmZEZHm0SFIquYNsi4wMmNjad1pLbH2HpTlh4I1zT1o6y3ruMBkgry1Vpm8WeU4ZN1hajcYzTalqd07NSW9NbHdEOXmTeCXqKpTTfE6fmXn/paOHx0kpbKeIeqMuCqcH9LY99t9pb3il5s95zd7o10/Pp7uXI6KTypABrss5UjQhxqSXMj/c+o97e3lWlhbuZXaS0jTsqWtLbJ7lz/pEHrVZTk5SblKTu2zoIQjCKjHcfObi4qV6jqVHls8SNjxDANjm3+9Q+t7jId/7F/AvfJ3/NXY+4nJRH0AAAAAAAAAAAAAAAAAAAAAA8lFNNNJpqzT1pp7U0Acfz/wAwHh9LFYKLlQ1urRjrlS4ygt8OryezZBuLbPnRL7R+kt1Oq+x+JA6dYrXE6KFQu8oa6p665sMDkfEVqbq0aMqkIytdWu3v0U3eVuok07OrUhrxWwiVtI0KU1CcsP8APkYDk03GScZLU4yVmupp7CPKDi8MlwqqSynlGurLRk1u2rsPeLyslfUWpNopMmpssl9BrhJ+xMi1/WJlsswa6zInA0TE6ZMMzM+Z4W1HE6VXDbIy21Ka6vOj1bVu4FhbXmr5s9xQ32jNbz6e/lzOnYvLNONFVaco1VUV6Wi7qXXfgXdCk60sR+ZyOkb6nY03Opv3JcW/zeyG4qrKpJzm7ye34Iv6VONOOrE+bXV3Uuarq1Htf06kWrHqRwYB4zINlm3+9Q+t7jId/wCxfwL7yd/zV2PuJwUR9AAAAAAAAAAAAAAAAAAAAAAAAAOU+EPwfNaWLwELrXKvh4L0upSXtj3cCJXt1LzolxY6RcMU6j2cGQTNfJEsZV0E3GlCzrVFuXmx+k93fuPK0s3WnjhxLC90lG2p629vcvzgdgw0I04Rp04qEIK0YrYkjqIU1FKK3HF1K8pycpPLZhZYyNRxUbVYc5Lm1I6qkex711PUeFxaU6yxJfElWmkKtvLMHs5cDludub9XCtaXPp35lWK5rW+LXky6urVc56taTt54e58Tq6V/Tu6WtHZKO9dX3RoITPBo9YyybbJD1S7V7CJcb0WNnuZmtHgSWiiUTZM8JQNhkfLE8O7dOk3zof3Re5+p+ss7DSM7aWN8eRy3lB5N2+lafnebUW6X2a4r6reuTm2FxMKsFOnLSi+9Pg1uZ2dvc068NeDyfFNIaNudH1nRuI4f0a5p8V+PaVNEghI8MmRYAuZvZRh/5Glh1zqjjOUrbIpU29fW9Wr08Lwb+a6PB0/k3bTdfpnuSfx/Pzq6IUp3AAAAAAAAAAAAAAAAAAAAAAAABj47FxpQc5fVW9vckb04OctVGlSpGnHWkQ2nCMXOUIQpurUlUmoRUU5y2yst5cU6MaccIqp3E6jzJ/0ivTPTBprlUZmGjaMxi8NCtTlSqxU6dRWlF/hwfWeNWlGcXGRNoV5U5KUXtOJZxZGngsTKhJuUelSn58Hsl27U+tM5u5oOlPB1VpcKrBSRfyK+bJ/S/D/sqrnei/sn5rfWbAjk08YNWiiSNkR5o3uZdCTqzmm1CMLSW5tvm33O1n39Z0Ggac3Vck9iR868v7ilTsYUpJOUpbOaS9ZrlnYutN8iXNHWnyNM8sMjJG8uZw2Thh3d76u1L+Di+vZ2mrfIuLPR2Xr1vl4+BV4JqDllJzd3oYepJt63dygrt8dbK692QS6zsNGrznjgjs5WFyAAAAAAAAAAAAAAAAAAAAAACitVUIuUnaMVdsyk28IxKSissh+Uca609J6orVCPBfFlzb0FSj1lHXrutLPDgY6Pc8z0GcHqMGyLtNmrPeDIt4UMmKrguXS5+FkpXW3k5NRmvdf1Ssv6WtTzyLnRtbVqavMgORV4q/GTfsX4HJ3Prnc2Ps89ZsCOTsnjBq2Uxi5NRiryk7JLa29iPSEXJqK3si1qkYRc5vCSy29yS3s6FkbJ6oUVDyulNrfJ7fwXoO7sLX9NRUOO99p+evKPTD0pfSrL1F5sV/xXi8t9uDzKGUqdHpyvLdCOuf8A12snZKuhbVK3qrZz4fnYRbKWVKlbU+ZT8yO/+J+V7DOOZdW9rTo7VtfPw5Grqx1Bk2LJ54G8LzsTWtqtTpxfXzpSXuFTfy2pHQ6Mj5rkdOIBaAAAAAAAAAAAAAAAAAAAAAHjYBFss5Q5WWjH5OL1fSfndnAtbWhqLXlv7ipuq3SPVjuX1MGMCW2R1AqUDGTfUGiMmdQaIMapVFGGekUWctYflMJXpvy8PVj6XTlZkeuswaJtvLVnF9ZyLJ0bUofwp9+v8ThqzzNn0a282mkZVzywSdYJNuyTbexLW/QbRi5PCW086lSMYuUnhLi9iRIsjUKWH8bVfKVrc2ENahfbr2aXs9vX6K0U6Ppai87u/s+SeVflFU0jmzs9lL+Ut2v1Jb9VfV7dxXjst1Z6ovko/R6X2vgXqgcfRsacNr2v6fLxNQ4+vabYJ2SmTBskYeIqblr4Jbew85MkU4Ns7XmFkZ4XAwhNWq1G6lVb1KVrRfZFRXoKGvU15tnVW1Lo6SiSI8SQAAAAAAAAAAAAAAAAAAAAARbO3OOlRXJyqKN+klrnK3kRS124vZuJ9nbuT1miFc1f4L4+BBsTnXN6qNJRW6VXW/sxaS72XEbdveyFlLcYNTLGJltryS4QUY+uKv6z3VtDkNdmO8VWe2vWf/LP4m/QQ5GNd8yn9LrLZXrfez+Jh0YcjOs+ZdoZVxV7QrVJPg7T79JMj1o0KUdao0l24NZ1lBZm0l14Nxg8qYxdPkZLfpq0v6NRT1dK2UXiLk+xbPrghS0xQi+fYvHBGvCbnZi6UaVOk/0eNSMuUnSd3K1loaTScVZ7FtuRZXkay9HnHX/6y10Ze0rpScFhrma3NfB18RhY1nG60pRUrPnKOq9op9a9BXPQ9Wq9anhLrZ0f/wBbZW3ormT11yXDhxSNisEk7TnZ8Etf9WzuJNHydm36SaXZt8CPceW1FL0FKUuttJfTW+xk03CC5qtxb1yfp+BfWmj7e19mtvN7/wCvgcfpLTN7pDZWliPurZHxfxb6imdcm5KtQLUqxrk3UC1OuuJhyN1TbMjC5Lr1uhTcYvy6nNj269b9CNHI8ql1Qo+tLbyW1/nadBzIzLp05LEVfGzj8m5Lmp+dGPVxevs31l3X/hH4l3oihOslcVFiP8Y/d/ZbuPJk9K86EAAAAAAAAAAAAAAAAAAAAAjWfucLweGTp25atLQpX3aryn6F62iTa0OmqYe48a9TUjlbzkEFKcnOcnOculKWts6alTSWEVLeTLhTJKQKrGQXKOGnPoxuuL1R7zzlNI1ckt5lwySl05XfCOpd71v1FHpPTKt/R09s/ou3wK670gqK1Y7Zd35yMynTUVaKSXUcbXr1K09eo8v8+Rz1SrOrLWm8sqPI0MLK2g1ThUjGcZ4mlFxmlJdNN6n1J95Ks5YrR5ZXeSLXXi5yg2moyezZwJRTgopRilGKVkkrJLgluO2SwUspOTzJ5YnBNWkk1waugFJp5RizyVQe2jT9EUvYD3V3XX838yy8gYf/ANX9UviD0/X3HvfReAjkHDr/AGU+1yftYMO/uH/LuMvD4GlDXClCD4xik+8HjOvUn60m/ibfJGTnVld6qcek+L81ES6uNRasd/cXugdD/qp9NVXo1/2fLs5/LslkVZWSslsS2FQfRD0AAAAAAAAAAAAAAAAAAAAAA5J4U8Xp4+NLyaFBfam3KXqUC70XDzHLm+4rryXnJEdoou4kQy8PRlN2ir8W+iu1iU1E1ckt5tMPk2Mdcue+vo+hb/SeEqjkeEqr4GXOdis0leq1o5XrPYvH4EO4r9FDW48Cw5HDSk5NtvaznpNyeXvPLmpgIA0GddVrkknZpyku1aNn7TdSccNc+4tNGwT12+pd5N8FiVUpwqR2Tin3rYd3SqKpBTXE5ytTdOo4Pgy8bnmAAAADJwGDdWejHVvk+C4njXrKlHPEtNE6MnfVtXdFb3+cX/ZMMPQjCKhFWUVq+L6yklJyeWfTqVKFKCpwWEtiRcMHoAAAAAAAAAAAAAAAAAAAAAADhWeGI08pYqTeyto/YhGH9p0VgsUY/nEqrh5qMyMm5NckpVLxjujsk+3gvX2E5zfAhTqpbEbuKSVopJLYlsPMjuWTxs2NGyxOWs4TS1109zLG6OxfDf8AN/TBS3tXXqY4LZ4lJWEQAFUTZGGRjOqXjorhSXrlIT3IudGr0TfX9kbPMnKtr4ab1O8qTfHyofivSX+hr1ewn8PAhaXtc+mj2Px+3yJidCUAAABcoUXOSjFXlJ2Xx7DSpUUI6zJNnaVLqsqVNbX9FzfYS/J+CVKGitbeuUuL+BSVajqS1mfUrGyp2dFUqfz5vm/zqMo8yWAAAAAAAAAAAAAAAAAAAAAAAgDjH/j/APVV61TXKWJqygtyTqys317OztOntaeKUc8kczd3Oakox5s2SZ7kZM9uDOSlmTXJamuBzWk9Ca2atutvGPh4fLrg3FqpedDfyLWmco3jYyuccbCpSGTGC5A3RoyL5z/vH/HH2yMVOBc6O9j8X9jV0p6MlLg9200y+BNktZNE7yPl5O0KztLyZ+TLhfg/UdLo3TMaqVOu8S58H4M5m6sGvPp7uXI3xflYU1aijFyk1GMVdt7EjEpKKcpPCRmMXJqK3kTo55VqWK5akr0ktHkpbJQvrbe6Tste7vvyF1pWVWtmPqrh9zstEx/QrZtb3+HwOtZCyzSxdFVaMrrZKL6cJb4yW5+0l06kakdaJ19KrGrHWibE3PQAAAAAAAAAAAAAAAAAAAAAABAHJq/yk/5k/eZ1tD2MOxdxxtb28/8AZ97Kos2ZlHtwZKZMzg0bPKUJTkoQi5Tk7RS3mJzjTi5SexGIRlUkoQWWyT4nMrxC0J/6hK8r/Jy+h1W3P/Fxekqau6jqRWq+/t8S3raEhOlhPz+fBkOrQlTm4VIuE4vXGW1HPyUoS1ZLDOWr286MnCawy9SkesWRJIj2dMPHRfnU16pS+KNqm5MtdGv0TXX9kaex5E82GClpQs9sdXo3EeqsPJFrLVlnmbPA5Vq0dSenBeRPWvQ9q9hZWemK9ulHOY8n9mQ61pSrbWsPmivLOV5V4qCjoQ2yV73fbwR7aR0w7qChFYXHrfga2lnGg3LOWah0in1iepGVkXK1XB1VVoys9k4voTj5sl+O4k0LiVOWUS7a6lRllHZ83Mv0sZS5Sk7SXylN9OD6+K4MvaVWNSOYnS0K8a0daJtj1PYAAAAAAAAAAAAAAAAAAAAAIA5NX+Un/Mn7zOuoexh2LuOMre3n/tLvZ6jYINgNltJyajFOUpO0Utrb2JGW1GLlLYkaJSnJRistnQM2sgrDx0p2lWmuc90V5kfxe85u8vHXls9Vbl9zp7GyVvHL2ye9/Zfm03hCJ5qsu5Cp4qNp82pFcyoukup8V1HhXt4Vo4lv58iJd2dO5hqzXY+KOdY/J9TDVOTqxt5sl0JLjF/huKWdKdGWrL58GcVfWNS2liW7g+DNLnRSvThPzZNPskvy+s3e2Jro6WJyjz+3/pHkeJalzD1dCSlu2NdRhrWWGaVIa8cG4lG+ta09jIjTRATxsLbiMm2TxxGTOS3OBumbqR7k7H1cNVVahNwnH7LW+MlvT4EmjWlTlmJLoXEqUtaLOyZq5zUsbTvHmVoLxtJvWvpR4x6y+o141Y5R01vcxrxyt/I3p7EgAAAAAAAAAAAAAAAAAAABAHJa/wApP+ZP3mddQ9jDsXccXX9vP/aXexc3MZKG7uyTbbsktrfBGdiWWa7W8LeTzNbN/kFytVJ1pLZugn5K6+L9Bzl9euu9WPqr69Z0uj7FW8daXrP6dXiSEgFkAAAY2UMDTrwdOrHSi+9PjF7maVKcakdWS2HnVowqwcJrKZzzOTNqdOEoN6dKatCpbY9sdJbmml2lbO2lT60cXfaOqWFRVo7YZ38up+O45tKLTcZKzTs09zW1EKSw8EpNNZQNTJsMm4nyH9X8UedWOVki3FP+aMyRGI6KGDJ4zJlFmcTdM9EzzCYqpQqRq0ZuFSDvGS9j4rqJFKrKEsxJVGtKnLWizr+Z2dtPGw0ZWp4iC59PdJefT4rq2r1l7b3Eaq6zpLW6jXXXyJKSCWAAAAAAAAAAAAAAAAAAEAcjxL8ZP+ZP32dfQ9jDsXccTXfp6n+0u9lDkemDTPAnGamb3J2r1l41rmRfkJ739L2HP3990r1Ier3/ANHSaOsOhXSVPW7v75/Ltk5WFqAAAAAAU1KaknGSUotWaexgw0msPccwz+zHmm8ThIuov92lHXNfSivK9uwr7m1b86HyKSto3o9tH1eXLs6urh2bucN2dnqadmntT4MrnFoguLWxnmkYwYwbPDYzSWvpLb19ZGnTw9m4h1KOq9m4uOqaappqnnKGdUzqnjqGcGdUtTkbJG6RbpYiVOcalOThODvGUXZpntTk4vKJFKcoNOO869mPnrDGJUq1qeKitmyNRLyodfFf4ru3uFUWHvOitbpVVh7yXkklgAAAAAAAAAAAAAAAAIA4/jJeNqfzJ+8zsbdehh2LuOFunivU/wBpd7Jjmjm7o2xFePO20oS8nhOS48FuKTSF9r+ipvZxfP8ArvOg0Zo/o0qtVedwXL++4l5Ul0AAAAAAAAAADW5TyDhsRrr4elUfnOKU/trnes1lCMt6NJ04T9ZZI7ivBlgZdBVqP8FS6/rTPB2lJ8CPKxovhg10/BPSveGLqx4aUIv2WPN2MHxZ5PR1N7MsfsuXzx/dfmPL9tj7x4ftMfe+h5+y5fPH91+Yz+3R94ftMfe+g/Zcvnj+6/MP26PMftMfe+g/Zavnj+6/MP26PMz+0x976FEvBUvnj+6/MZ/b48zK0XH3voUw8FDjJSjjpRlFpxlGnaSa2NNT1M2VkltUj0jo9ReVJnQsnUqkKUY1qqrVIq0qijoaXBuN3Z8Sak0tpYRTS2syTJkAAAAAAAAAAAAAAAIAh2b2bN608RiI6lVk6VOW/nO05LhwXpLW5v8ANGNGnyWX8N3iU1ro1KvOvU95tL47/D5kxKouQAAAAAAAAAAUwldX16+Ks+5gFQAAAAAAAAAAAAAAAAAAAAAAAAAAAAAAAAAAAAAAAAAAAAAAAAAAAAAAAAAAAAAAAAAAAAAAAAAAAAAAAAAAAAAAAAAAAAAAAAAAAAAAAAAAAAAAAAAAAAAAAAAAAAAAAAAAAAAAAAAAAAAAAAAAAAAAAAAAAAAAAAAAAAAAAP/Z;" parent="1" vertex="1">
          <mxGeometry x="18" y="255.55" width="76" height="58.48" as="geometry" />
        </mxCell>
        <mxCell id="8du3H3_jCVZy6vlck9dF-7" value="" style="image;aspect=fixed;html=1;points=[];align=center;fontSize=12;image=img/lib/azure2/analytics/Power_BI_Embedded.svg;" parent="1" vertex="1">
          <mxGeometry x="646" y="223.65" width="51" height="68" as="geometry" />
        </mxCell>
        <mxCell id="GAJ5VXexBn3Qz4SuCFOF-1" value="" style="shape=image;verticalLabelPosition=bottom;labelBackgroundColor=default;verticalAlign=top;aspect=fixed;imageAspect=0;image=https://raw.githubusercontent.com/docker-library/docs/c350af05d3fac7b5c3f6327ac82fe4d990d8729c/docker/logo.png;" parent="1" vertex="1">
          <mxGeometry x="77.19999999999999" y="186" width="71.8" height="64.12" as="geometry" />
        </mxCell>
        <mxCell id="GSB6CKghgu1PnchC7ddf-13" style="edgeStyle=orthogonalEdgeStyle;rounded=0;orthogonalLoop=1;jettySize=auto;html=1;" edge="1" parent="1" source="GSB6CKghgu1PnchC7ddf-1" target="GSB6CKghgu1PnchC7ddf-2">
          <mxGeometry relative="1" as="geometry" />
        </mxCell>
        <mxCell id="GSB6CKghgu1PnchC7ddf-1" value="" style="image;aspect=fixed;html=1;points=[];align=center;fontSize=12;image=img/lib/azure2/analytics/Data_Lake_Store_Gen1.svg;" vertex="1" parent="1">
          <mxGeometry x="193" y="231.19" width="96" height="78" as="geometry" />
        </mxCell>
        <mxCell id="GSB6CKghgu1PnchC7ddf-6" style="edgeStyle=orthogonalEdgeStyle;rounded=0;orthogonalLoop=1;jettySize=auto;html=1;" edge="1" parent="1" source="GSB6CKghgu1PnchC7ddf-2">
          <mxGeometry relative="1" as="geometry">
            <mxPoint x="532" y="270.09" as="targetPoint" />
          </mxGeometry>
        </mxCell>
        <mxCell id="GSB6CKghgu1PnchC7ddf-2" value="" style="image;aspect=fixed;html=1;points=[];align=center;fontSize=12;image=img/lib/azure2/analytics/Azure_Databricks.svg;" vertex="1" parent="1">
          <mxGeometry x="365" y="221" width="90.51" height="98" as="geometry" />
        </mxCell>
        <mxCell id="GSB6CKghgu1PnchC7ddf-4" value="" style="image;aspect=fixed;html=1;points=[];align=center;fontSize=12;image=img/lib/azure2/databases/SQL_Database.svg;" vertex="1" parent="1">
          <mxGeometry x="531" y="223.65" width="64.43" height="85.9" as="geometry" />
        </mxCell>
        <mxCell id="GSB6CKghgu1PnchC7ddf-8" value="" style="shape=image;verticalLabelPosition=bottom;labelBackgroundColor=default;verticalAlign=top;aspect=fixed;imageAspect=0;image=https://cdn.prod.website-files.com/6064b31ff49a2d31e0493af1/6765345be13cc7b8a8806b53_icon.svg;" vertex="1" parent="1">
          <mxGeometry x="-182" y="231.19" width="107.2" height="107.2" as="geometry" />
        </mxCell>
        <mxCell id="GSB6CKghgu1PnchC7ddf-12" value="" style="endArrow=classic;html=1;rounded=0;exitX=1.032;exitY=0.399;exitDx=0;exitDy=0;exitPerimeter=0;" edge="1" parent="1" source="8du3H3_jCVZy6vlck9dF-6" target="GSB6CKghgu1PnchC7ddf-1">
          <mxGeometry width="50" height="50" relative="1" as="geometry">
            <mxPoint x="84" y="307.09" as="sourcePoint" />
            <mxPoint x="134" y="257.09" as="targetPoint" />
          </mxGeometry>
        </mxCell>
        <mxCell id="GSB6CKghgu1PnchC7ddf-14" style="edgeStyle=orthogonalEdgeStyle;rounded=0;orthogonalLoop=1;jettySize=auto;html=1;entryX=-0.016;entryY=0.636;entryDx=0;entryDy=0;entryPerimeter=0;" edge="1" parent="1" source="GSB6CKghgu1PnchC7ddf-4" target="8du3H3_jCVZy6vlck9dF-7">
          <mxGeometry relative="1" as="geometry" />
        </mxCell>
        <mxCell id="GSB6CKghgu1PnchC7ddf-15" value="Polygon API" style="text;html=1;align=center;verticalAlign=middle;whiteSpace=wrap;rounded=0;" vertex="1" parent="1">
          <mxGeometry x="-171.4" y="327" width="86" height="27" as="geometry" />
        </mxCell>
        <mxCell id="GSB6CKghgu1PnchC7ddf-16" value="Airflow" style="text;html=1;align=center;verticalAlign=middle;whiteSpace=wrap;rounded=0;" vertex="1" parent="1">
          <mxGeometry x="26" y="314.09" width="60" height="30" as="geometry" />
        </mxCell>
        <mxCell id="GSB6CKghgu1PnchC7ddf-17" value="Data Lake Gen 2" style="text;html=1;align=center;verticalAlign=middle;whiteSpace=wrap;rounded=0;" vertex="1" parent="1">
          <mxGeometry x="194.5" y="309.19" width="93" height="28" as="geometry" />
        </mxCell>
        <mxCell id="GSB6CKghgu1PnchC7ddf-18" value="Databricks" style="text;html=1;align=center;verticalAlign=middle;whiteSpace=wrap;rounded=0;" vertex="1" parent="1">
          <mxGeometry x="378" y="319.09" width="60" height="30" as="geometry" />
        </mxCell>
        <mxCell id="GSB6CKghgu1PnchC7ddf-19" value="SQL DB" style="text;html=1;align=center;verticalAlign=middle;whiteSpace=wrap;rounded=0;" vertex="1" parent="1">
          <mxGeometry x="535" y="309.09" width="60" height="30" as="geometry" />
        </mxCell>
        <mxCell id="GSB6CKghgu1PnchC7ddf-20" value="Power BI" style="text;html=1;align=center;verticalAlign=middle;whiteSpace=wrap;rounded=0;" vertex="1" parent="1">
          <mxGeometry x="637" y="292.09" width="60" height="30" as="geometry" />
        </mxCell>
      </root>
    </mxGraphModel>
  </diagram>
</mxfile>
